<?xml version="1.0" encoding="UTF-8" standalone="no"?>
<svg
   viewBox="0 0 685.49 286.27394"
   width="653.48999"
   height="258"
   version="1.1"
   id="svg836"
   sodipodi:docname="cyjax.svg"
   inkscape:version="1.1.1 (c3084ef, 2021-09-22)"
   xmlns:inkscape="http://www.inkscape.org/namespaces/inkscape"
   xmlns:sodipodi="http://sodipodi.sourceforge.net/DTD/sodipodi-0.dtd"
   xmlns="http://www.w3.org/2000/svg"
   xmlns:svg="http://www.w3.org/2000/svg">
  <sodipodi:namedview
     id="namedview836"
     pagecolor="#ffffff"
     bordercolor="#666666"
     borderopacity="1.0"
     inkscape:pageshadow="2"
     inkscape:pageopacity="0.0"
     inkscape:pagecheckerboard="0"
     showgrid="false"
     inkscape:zoom="5.0507936"
     inkscape:cx="30.292269"
     inkscape:cy="95.628536"
     inkscape:window-width="1312"
     inkscape:window-height="916"
     inkscape:window-x="0"
     inkscape:window-y="38"
     inkscape:window-maximized="0"
     inkscape:current-layer="text828" />
  <defs
     id="defs826">
    <style
       id="style824">@import url('https://fonts.googleapis.com/css2?family=Caveat+Brush&amp;family=Source+Code+Pro&amp;family=Source+Sans+Pro&amp;family=Crimson+Pro&amp;display=block');</style>
  </defs>
  <g
     text-align="center"
     text-anchor="middle"
     fill="#ff9433"
     transform="matrix(1.0385169,0,0,1.0385169,-8.2452782,82.517007)"
     id="g830">
    <g
       aria-label="CY"
       transform="scale(2.9356058)"
       id="text828"
       style="font-size:96px;font-family:'Caveat Brush';letter-spacing:-2.88">
      <path
         d="m 18.233251,-10.752 c 0.896,-0.384 2.752,-0.512 5.568,-0.384 2.816,0.064 4.832,0.32 6.048,0.768 l 2.4,0.768 c 1.984,1.344 3.104,2.016 3.36,2.016 2.624,2.048 4.128,4.736 4.512,8.064 0.384,1.408 0.448,2.688 0.192,3.84 0,0.384 -0.128,1.216 -0.384,2.496 l -0.96,2.208 -1.152,1.632 c -0.384,0.064 -0.608,0.096 -0.672,0.096 -2.368,0.384 -4.192,0.448 -5.472,0.192 -1.28,-0.32 -2.4,-1.024 -3.36,-2.112 -0.192,-0.384 -0.288,-0.736 -0.288,-1.056 0.064,-0.32 0.16,-0.608 0.288,-0.864 l 0.48,-1.536 c 0.832,-2.048 0.768,-3.776 -0.192,-5.184 0,-0.192 -0.32,-0.544 -0.96,-1.056 -0.64,-0.512 -1.152,-0.896 -1.536,-1.152 -0.32,-0.256 -0.928,-0.288 -1.824,-0.096 -1.536,0.64 -2.848,2.592 -3.936,5.856 -1.28,1.664 -2.176,3.84 -2.688,6.528 -0.768,4.8 -1.152,7.52 -1.152,8.16 l -0.096,2.112 v 0.864 c -0.128,0.128 -0.064,2.912 0.192,8.352 0.064,0.32 0.192,0.768 0.384,1.344 0.192,0.704 0.48,1.856 0.864,3.456 l 1.248,2.112 c 0.32,0.192 0.736,0.768 1.248,1.728 0.32,0 0.576,0.224 0.768,0.672 0.448,0.448 0.64,0.704 0.576,0.768 0.32,0.064 0.8,0.256 1.44,0.576 1.728,0.896 3.232,0.704 4.512,-0.576 0.448,-0.448 0.992,-1.056 1.632,-1.824 0.704,-0.832 1.216,-1.472 1.536,-1.92 0.384,-0.512 0.96,-0.992 1.728,-1.44 2.112,-1.6 3.936,-1.536 5.472,0.192 0.32,0.512 0.352,1.76 0.096,3.744 -0.192,1.92 -1.088,3.936 -2.688,6.048 -0.128,0.384 -0.544,1.024 -1.248,1.92 -0.704,0.832 -1.44,1.504 -2.208,2.016 -0.128,0.448 -2.56,0.768 -7.296,0.96 -0.256,0 -0.768,-0.064 -1.536,-0.192 -0.704,0.192 -1.664,0.096 -2.88,-0.288 -1.152,-0.384 -1.792,-0.576 -1.92,-0.576 l -1.248,-0.288 c -0.512,0 -1.024,-0.16 -1.536,-0.48 -0.512,-0.32 -1.376,-0.864 -2.592,-1.632 -1.152,-0.832 -2.048,-1.504 -2.688,-2.016 -1.9199997,-1.536 -3.2959996,-3.296 -4.1279996,-5.28 -0.256,-0.448 -0.416,-1.056 -0.48,-1.824 -0.064,-0.832 -0.192,-1.44 -0.384,-1.824 -0.512,-0.512 -0.6964636,-1.916291 -0.6964636,-3.068291 0.064,-1.152 -0.071536,-1.987709 -0.2635364,-3.651709 0,-0.768 0.032,-1.216 0.096,-1.344 -0.32,-0.32 -0.448,-0.864 -0.384,-1.632 0.064,-0.832 0.096,-1.952 0.096,-3.36 0.192,-0.384 -0.00401,-1.460666 -0.068006,-3.316666 C 4.2309097,16.439149 4.0515654,13.969235 4.4092513,11.904 L 4.6483241,9.024 C 4.7123241,7.872 5.3692513,5.376 5.3692513,5.376 5.4332513,4.8 5.976409,3.5942258 6.168409,2.8262258 6.360409,1.9942258 6.7772513,0.896 8.2492513,-1.536 c 0,-0.512 0.48,-1.152 1.44,-1.92 0,-0.256 0.2559999,-0.64 0.7679997,-1.152 0.512,-0.512 1.088,-1.152 1.728,-1.92 0.896,-1.088 1.888,-1.888 2.976,-2.4 1.088,-0.512 2.112,-1.12 3.072,-1.824 z"
         style="font-size:96px;font-family:'Caveat Brush';letter-spacing:-2.88"
         id="path3128"
         sodipodi:nodetypes="cccccccccccccccccscccccccccccccccscccccccccccccscscccccccccccccccscsc" />
      <path
         d="m 65.30775,16.704 q 0,-1.344 0.096,-2.112 0.864,-7.008 0.864,-7.296 V 3.36 q 0.288,-0.384 0.576,-4.512 0,-4.608 0.384,-6.624 0,-1.344 0.96,-2.592 1.152,-2.016 2.976,-2.88 h 0.096 q 1.344,-0.384 2.88,0.096 1.632,0.48 1.824,0.576 0.192,0 0.576,0.192 0.384,0.192 0.48,0.288 0.192,0 0.48,0.192 0.288,0.192 0.384,0.384 0.096,0.096 0.288,0.288 1.056,1.056 1.44,12.288 0.288,1.44 0.288,5.184 0,3.744 -0.096,5.088 v 0.864 q -0.192,1.728 -0.192,2.496 v 0.672 q 0,1.824 -0.288,2.688 0,2.112 -0.48,4.032 0,0.672 -0.48,2.304 -0.384,1.536 -0.384,2.592 0.096,0.672 -0.864,3.936 0.192,0.384 -0.672,2.88 0,1.056 -0.672,2.4 -0.672,1.344 -0.768,1.44 0,0.096 -0.192,0.48 -0.096,0.288 -0.288,0.864 -0.192,0.48 -0.48,1.248 -0.48,2.784 -3.072,6.24 l -1.536,1.44 q 0.192,0.192 -0.48,0.864 -0.864,0.864 -5.664,3.264 -0.096,0.096 -2.016,0.576 -1.824,0.48 -4.224,0.48 -2.4,0 -4.608,-0.768 -1.344,-0.288 -2.4,-0.864 -0.48,-0.48 -1.344,-0.96 -0.288,0 -2.784,-1.632 -0.384,-0.096 -2.496,-3.456 0,-0.096 -0.672,-1.344 -1.536,-3.36 0.096,-6.048 0.768,-0.672 2.016,-0.672 2.976,0 5.184,2.784 0.096,0.096 0.192,0.192 3.84,3.936 6.816,2.976 1.44,-0.576 1.824,-1.248 0,-1.152 1.056,-2.496 1.152,-1.344 1.248,-1.536 l 1.248,-4.032 0.288,-2.016 q 0.192,-0.192 -0.384,-2.304 0,-0.384 -1.632,-0.864 -1.536,-0.576 -2.688,-0.672 -1.92,0.384 -4.992,-1.824 -1.152,-0.864 -1.536,-1.344 -0.288,-0.576 -0.384,-0.768 -2.496,-3.264 -2.496,-4.8 l -0.384,-0.96 q 0,-0.96 -0.768,-1.632 0,-0.192 -0.288,-3.36 -0.672,-2.496 -0.672,-4.32 V 7.584 l 0.096,-1.92 q -0.192,-0.768 0.096,-2.976 v -3.552 l 0.096,-1.344 v -1.92 q 0.096,-0.096 0.096,-0.96 l 0.096,-0.96 q 0,-0.864 0.096,-1.44 0,-3.84 4.224,-4.512 3.264,-0.288 4.416,0.576 2.208,1.92 1.92,7.68 0,1.824 -0.192,2.784 0.576,1.824 0.288,3.072 0.192,0.672 0.192,1.344 V 4.8 q 0,0.384 0.288,3.456 0.384,2.976 0.768,4.128 0,1.248 0.384,2.304 0,0.768 1.056,2.784 0.768,4.224 3.264,3.936 0.96,-0.192 1.536,-3.168 0.288,-0.288 0.096,-1.536 z"
         style="font-size:96px;font-family:'Caveat Brush';letter-spacing:-2.88"
         id="path3130" />
    </g>
  </g>
  <g
     text-align="center"
     text-anchor="middle"
     fill="#1d1d1d"
     transform="matrix(0.89217013,0,0,0.89217013,287.19508,120.96804)"
     id="g834">
    <g
       aria-label="JAX"
       id="text832"
       style="font-size:287.996px;font-family:'Source Sans Pro';letter-spacing:-8.63988;stroke-width:2.99996">
      <path
         d="M 74.42276,73.926973 V -80.438884 H 47.06314 V 69.895029 q 0,16.991765 -7.1999,27.071625 -6.911904,10.079856 -25.631644,10.079856 -10.0798602,0 -16.7037683,-2.87996 -6.335912,-3.16795 -10.0798597,-8.639876 -3.455952,-5.471924 -4.895932,-12.95982 -1.43998,-7.487897 -1.43998,-16.415773 v -8.63988 h -27.359621 v 12.671824 q 0,29.375593 15.551785,44.639385 15.551784,14.97579 44.351384,14.97579 17.27976,0 28.7996,-4.60794 11.807836,-4.89593 18.71974,-12.67182 7.1999,-8.06389 10.07986,-18.14375 3.167956,-10.07986 3.167956,-20.447717 z"
         style="font-family:'Helvetica Neue';-inkscape-font-specification:'Helvetica Neue, Normal'"
         id="path3151" />
      <path
         d="m 146.28677,40.231441 34.84751,-95.902669 h 0.576 L 215.9818,40.231441 Z M 166.73448,-80.438884 86.671595,125.19026 h 27.935615 l 23.03968,-61.919139 h 86.97479 l 22.46369,61.919139 h 30.23958 L 196.97406,-80.438884 Z"
         style="font-family:'Helvetica Neue';-inkscape-font-specification:'Helvetica Neue, Normal'"
         id="path3153" />
      <path
         d="M 337.93011,19.495729 266.5071,125.19026 h 30.52758 l 57.0232,-84.958819 55.29524,84.958819 h 33.40753 L 370.47366,19.495729 438.44071,-80.438884 H 407.91314 L 354.34588,-0.08799911 303.08259,-80.438884 h -32.83154 z"
         style="font-family:'Helvetica Neue';-inkscape-font-specification:'Helvetica Neue, Normal'"
         id="path3155" />
    </g>
  </g>
</svg>
